PathFileType	4	(X/Y/Z)	Patient4_TMGait_0pt7_02_right_39.trc.trc
DataRate	CameraRate	NumFrames	NumMarkers	Units	OrigDataRate	OrigDataStartFrame	OrigNumFrames
85.365853658537	85.365853658537	4	33	mm	85.365853658537	18	       141
Frame#	Time	Sacral			L.Shoulder			Chest			R.Shoulder			Neck			R.ASIS			L.ASIS			R.Thigh.Superior			R.Thigh.Lateral			R.Thigh.Inferior			R.Patella			L.Thigh.Superior			L.Thigh.Lateral			L.Thigh.Inferior			L.Patella			L.Shank.Superior			L.Shank.Lateral			L.Shank.Inferior			R.Shank.Superior			R.Shank.Lateral			R.Shank.Inferior			R.Heel			R.Midfoot.Superior			R.Midfoot.Lateral			R.Toe			L.Heel			L.Midfoot.Lateral			L.Midfoot.Superior			L.Toe			L.Elbow			L.Wrist			R.Elbow			R.Wrist			
		X1	Y1	Z1	X2	Y2	Z2	X3	Y3	Z3	X4	Y4	Z4	X5	Y5	Z5	X6	Y6	Z6	X7	Y7	Z7	X8	Y8	Z8	X9	Y9	Z9	X10	Y10	Z10	X11	Y11	Z11	X12	Y12	Z12	X13	Y13	Z13	X14	Y14	Z14	X15	Y15	Z15	X16	Y16	Z16	X17	Y17	Z17	X18	Y18	Z18	X19	Y19	Z19	X20	Y20	Z20	X21	Y21	Z21	X22	Y22	Z22	X23	Y23	Z23	X24	Y24	Z24	X25	Y25	Z25	X26	Y26	Z26	X27	Y27	Z27	X28	Y28	Z28	X29	Y29	Z29	X30	Y30	Z30	X31	Y31	Z31	X32	Y32	Z32	X33	Y33	Z33	

18	44.269142857143	754.558692165767	1025.003097775426	436.411093725432	1022.593435517312	1405.895021571781	250.211942536564	1094.523153233511	1328.786368455832	424.982125840091	1011.995218354368	1430.563012595079	583.423906182202	1020.611876161059	1476.517996525584	399.626116066776	959.791106725568	937.469831967435	577.201342106836	977.270689272340	946.893843743234	298.752415657759	1042.953668990488	784.679549752850	550.501425312320	1006.712351956353	662.965563201938	626.255105386554	1101.059917590568	630.967629542161	550.251787459928	1141.220660259876	542.597309213704	573.019499798485	972.052933096843	726.935912785877	338.256591237777	865.724478661981	633.216383547099	265.621451251239	917.545040371773	539.520995892194	338.698669538177	901.378925812636	473.362731861096	347.583096525234	865.303214413275	408.301783688142	335.421491949984	765.779213869737	309.643538486117	273.162026397340	786.612852485506	193.238330024732	350.524263828277	1114.291372334388	450.960642426671	582.552539490566	1046.791886044606	345.679767686904	647.069854791636	1104.080306948478	251.246605062024	598.310096836454	991.065078252051	71.498755847145	573.447285985410	1157.911090367854	138.593587783905	614.770751694143	1074.740443947104	65.282924522635	646.533355162084	1279.340046570289	95.010336849709	641.343210029267	633.010741821184	49.890659418651	374.425639263993	716.415510893645	40.702678318054	305.312860843484	798.806951864390	97.698042202724	340.680483640607	926.053581138856	38.193813699563	329.686884238393	1015.856016579099	1071.754164746880	112.430806137609	1264.288067155036	1065.147949650331	158.654486302208	830.286796779216	1145.688545309896	718.271541855701	758.572654247203	894.626581327791	737.122665029796	
19	44.280857142857	755.936458588787	1023.149369041755	439.246336379456	1022.439630447357	1404.793404623258	252.855845089509	1094.720113075034	1327.612228998887	427.317852669375	1012.601465943243	1429.421178077796	585.937286700589	1020.509677520946	1475.131836871482	402.108152711667	961.418278922358	935.172916585700	579.172853581779	978.118724882952	945.218570378922	301.137932283743	1041.803638481982	778.969095366978	552.388143284566	1003.399376156593	657.682837587569	627.754516138526	1096.543093801478	624.662421457617	550.752565562518	1135.778711504527	538.233853173087	572.758858522680	970.123212793499	725.154101185053	339.601069683826	862.092342320999	632.957466348533	266.423220887577	912.548327047716	538.398610617843	338.884205845156	895.533653905402	472.441693121014	347.604092110508	859.198215465239	407.796900035425	335.439708817469	758.737909064886	309.920797309583	273.303370180883	779.029476218512	193.216565930775	350.401214478516	1112.190765113178	446.689621317027	582.704761178218	1049.015718689752	338.501898457757	647.086110628917	1110.346192825899	246.409425094216	597.856983853648	1004.252372899993	62.907361890154	572.636287293823	1169.398419903826	134.588528084759	613.397630401671	1088.644514753222	58.471193060510	645.078388648454	1292.486855080407	94.420092374720	638.654214138641	624.814577819670	50.405849455833	374.358739202020	708.201692448364	40.917302948584	305.287097046500	790.671229168417	97.777858623306	340.579148560593	917.764583947529	38.094198777226	329.686811240749	1018.733467552174	1070.929613979908	115.169219983658	1266.443568942033	1072.992312101143	163.778839210063	825.089243397261	1148.973466320674	719.595298754362	749.401303478353	898.802791789887	736.885159882218	
20	44.292571428571	757.515689349362	1020.869596626656	442.378322496137	1021.969108003363	1403.483939004100	255.596123564682	1094.881945760685	1326.333700907047	429.680335041508	1013.188611225176	1428.052950434648	588.585713345144	1020.219807183248	1473.544288414713	404.719026530320	963.403148445978	932.557557419088	581.178169916633	979.105174669820	943.342340992516	303.681910356829	1041.142269509550	773.028775981752	554.389349023928	1000.578664919136	652.209958186618	629.233014914616	1092.599460355580	618.330390968694	551.264754418281	1130.633252036004	533.447786336181	572.413007804831	968.602645623512	723.148637881074	340.839157278463	858.713843979434	632.525528166385	267.383130491266	907.978451272456	537.092047260840	339.112837785830	890.149756554545	471.271263117700	347.711363298485	853.455819617078	407.082791353352	335.526117134075	751.849491331311	310.133600645901	273.561099370568	771.500203502143	193.070592770915	350.311376810067	1109.830624557491	441.989086696804	582.714534675314	1050.044265726676	331.583468018309	646.732537066657	1114.555053486585	241.525590647680	597.029184220444	1013.783379272192	55.836567259551	571.296685960716	1177.679117109171	130.317711367197	611.514571491766	1098.656480352981	52.573909552435	643.261953455276	1301.862998557254	92.420957958849	635.769308483797	616.597057153672	50.820308852467	374.310188730790	699.969846626481	41.063403336889	305.268909192172	782.500692562469	97.829637317666	340.484592363622	909.474761774402	38.024195908826	329.680040632322	1021.280368819423	1069.784951586978	118.106922731666	1268.041809189809	1079.965058612462	168.945127876277	820.588172504831	1151.641019379063	720.990832089957	741.576012291688	902.171709181975	736.599674072920	
21	44.304285714286	759.239651965366	1018.242282423873	445.780772769277	1021.229057515445	1401.995379437006	258.432478902785	1095.035168441171	1324.989481554411	432.090431806505	1013.740793213908	1426.484184434542	591.378645838178	1019.787444873107	1471.805568531394	407.471499544929	965.693778422529	929.703228983403	583.222498819225	980.203690003813	941.358930288933	306.341678345528	1041.081978064491	767.151174172631	556.476644851555	998.401067318865	646.768976614272	630.604341082241	1089.473386548508	612.255423710900	551.799657932543	1126.075253045254	528.455335707073	571.984878720487	967.506358793544	720.969984195067	341.989226186672	855.650771893637	631.939383433193	268.522967847165	903.932461151833	535.618351995301	339.410140966723	885.344932694056	469.849280216329	347.922518643480	848.152196854267	406.157344120987	335.705192867082	745.188108019063	310.316429487649	273.948303333944	764.074522807521	192.826976112845	350.253123611450	1107.447211860473	437.043473351234	582.557899792356	1050.063174069008	325.073631439760	646.063317322345	1116.815830711000	236.638849552524	595.861648433694	1019.569237770629	50.259591859058	569.579167589919	1182.776284566239	125.762805976986	609.199791045990	1104.720431043085	47.602809303598	641.240301251306	1307.539751857225	88.954656700770	632.793630338699	608.365679651089	51.198720171938	374.266981191991	691.727795528540	41.163210774050	305.252452764173	774.327220743322	97.861891455775	340.382070903907	901.191047713450	37.988860770202	329.665307848371	1023.418935020152	1068.314299272095	121.254908404490	1269.092389111620	1085.977539357916	174.100270849216	816.848763105163	1153.571384427941	722.489694377960	735.103604582109	904.629342389107	736.308962510305	
